<svg width="100" height="100" viewBox="0 0 100 100" fill="none" xmlns="http://www.w3.org/2000/svg">
<path d="M4.1665 87.5V79.1667H95.8332V87.5H4.1665ZM16.6665 75C14.3748 75 12.4137 74.1847 10.7832 72.5542C9.15262 70.9236 8.33595 68.9611 8.33317 66.6667V20.8333C8.33317 18.5417 9.14984 16.5806 10.7832 14.95C12.4165 13.3194 14.3776 12.5028 16.6665 12.5H83.3332C85.6248 12.5 87.5873 13.3167 89.2207 14.95C90.854 16.5833 91.6693 18.5444 91.6665 20.8333V66.6667C91.6665 68.9583 90.8512 70.9208 89.2207 72.5542C87.5901 74.1875 85.6276 75.0028 83.3332 75H16.6665ZM16.6665 66.6667H83.3332V20.8333H16.6665V66.6667Z" fill="#222222"/>
</svg>
