<svg width="45" height="45" viewBox="0 0 45 45" fill="none" xmlns="http://www.w3.org/2000/svg">
<g clip-path="url(#clip0_115_713)">
<path fill-rule="evenodd" clip-rule="evenodd" d="M0 12.5C0 9.18479 1.31696 6.00537 3.66117 3.66117C6.00537 1.31696 9.18479 0 12.5 0H32.5C35.8152 0 38.9946 1.31696 41.3388 3.66117C43.683 6.00537 45 9.18479 45 12.5V32.5C45 35.8152 43.683 38.9946 41.3388 41.3388C38.9946 43.683 35.8152 45 32.5 45H12.5C9.18479 45 6.00537 43.683 3.66117 41.3388C1.31696 38.9946 0 35.8152 0 32.5V12.5ZM12.5 5C10.5109 5 8.60322 5.79018 7.1967 7.1967C5.79018 8.60322 5 10.5109 5 12.5V32.5C5 34.4891 5.79018 36.3968 7.1967 37.8033C8.60322 39.2098 10.5109 40 12.5 40H32.5C34.4891 40 36.3968 39.2098 37.8033 37.8033C39.2098 36.3968 40 34.4891 40 32.5V12.5C40 10.5109 39.2098 8.60322 37.8033 7.1967C36.3968 5.79018 34.4891 5 32.5 5H12.5ZM31.4925 10.535C31.4925 9.87196 31.7559 9.23607 32.2247 8.76723C32.6936 8.29839 33.3295 8.035 33.9925 8.035H34.0175C34.6805 8.035 35.3164 8.29839 35.7853 8.76723C36.2541 9.23607 36.5175 9.87196 36.5175 10.535C36.5175 11.198 36.2541 11.8339 35.7853 12.3028C35.3164 12.7716 34.6805 13.035 34.0175 13.035H33.9925C33.3295 13.035 32.6936 12.7716 32.2247 12.3028C31.7559 11.8339 31.4925 11.198 31.4925 10.535ZM22.5 15C20.5109 15 18.6032 15.7902 17.1967 17.1967C15.7902 18.6032 15 20.5109 15 22.5C15 24.4891 15.7902 26.3968 17.1967 27.8033C18.6032 29.2098 20.5109 30 22.5 30C24.4891 30 26.3968 29.2098 27.8033 27.8033C29.2098 26.3968 30 24.4891 30 22.5C30 20.5109 29.2098 18.6032 27.8033 17.1967C26.3968 15.7902 24.4891 15 22.5 15ZM10 22.5C10 19.1848 11.317 16.0054 13.6612 13.6612C16.0054 11.317 19.1848 10 22.5 10C25.8152 10 28.9946 11.317 31.3388 13.6612C33.683 16.0054 35 19.1848 35 22.5C35 25.8152 33.683 28.9946 31.3388 31.3388C28.9946 33.683 25.8152 35 22.5 35C19.1848 35 16.0054 33.683 13.6612 31.3388C11.317 28.9946 10 25.8152 10 22.5Z" fill="#F6F6F6"/>
</g>
<defs>
<clipPath id="clip0_115_713">
<rect width="45" height="45" fill="white"/>
</clipPath>
</defs>
</svg>
