<svg width="45" height="45" viewBox="0 0 45 45" fill="none" xmlns="http://www.w3.org/2000/svg">
<g clip-path="url(#clip0_105_4049)">
<path fill-rule="evenodd" clip-rule="evenodd" d="M23.9336 12.888V17.979C24.9327 16.3546 26.3103 15.0349 27.9315 14.1493C29.5527 13.2637 31.3617 12.8425 33.1814 12.927C42.899 12.927 45 19.407 45 27.837V45H35.9997V29.784C35.9997 26.154 35.3134 21.486 30.0144 21.486C24.8758 21.486 23.9983 25.437 23.9983 29.514V45H15.026V12.888H23.9336ZM8.99861 4.818C8.9975 5.76901 8.73321 6.69851 8.23887 7.48996C7.74453 8.28141 7.04213 8.89959 6.21975 9.267C5.39771 9.63144 4.49259 9.72678 3.61959 9.54086C2.74659 9.35495 1.94519 8.8962 1.31738 8.223C0.68838 7.54938 0.260157 6.69242 0.0865562 5.7599C-0.0870445 4.82738 0.00172892 3.86093 0.341711 2.98208C0.681694 2.10323 1.25771 1.35122 1.99732 0.820617C2.73692 0.290014 3.60711 0.00450721 4.49844 0C5.09073 0.000391516 5.67712 0.125412 6.22404 0.367899C6.77097 0.610386 7.26766 0.965576 7.68569 1.41313C8.10372 1.86068 8.43486 2.39179 8.66015 2.97606C8.88544 3.56032 9.00046 4.18625 8.99861 4.818Z" fill="#0A66C2"/>
<path d="M9 13.0908H0V44.9999H9V13.0908Z" fill="#0A66C2"/>
</g>
<defs>
<clipPath id="clip0_105_4049">
<rect width="45" height="45" fill="white"/>
</clipPath>
</defs>
</svg>
