<svg width="165" height="162" viewBox="0 0 165 162" fill="none" xmlns="http://www.w3.org/2000/svg">
<path d="M84 156L69 111H9L24 156H84ZM84 156H114M84 88.5V84.75C84 70.605 84 63.54 79.605 59.145C75.21 54.75 68.145 54.75 54 54.75C39.855 54.75 32.79 54.75 28.395 59.145C24 63.54 24 70.605 24 84.75V88.5M99 122.25H144C147.978 122.25 151.794 123.83 154.607 126.643C157.42 129.456 159 133.272 159 137.25V141C159 144.978 157.42 148.794 154.607 151.607C151.794 154.42 147.978 156 144 156H136.5M136.5 88.5C136.5 92.4782 134.92 96.2936 132.107 99.1066C129.294 101.92 125.478 103.5 121.5 103.5C117.522 103.5 113.706 101.92 110.893 99.1066C108.08 96.2936 106.5 92.4782 106.5 88.5C106.5 84.5218 108.08 80.7064 110.893 77.8934C113.706 75.0804 117.522 73.5 121.5 73.5C125.478 73.5 129.294 75.0804 132.107 77.8934C134.92 80.7064 136.5 84.5218 136.5 88.5ZM69 21C69 24.9782 67.4196 28.7936 64.6066 31.6066C61.7936 34.4196 57.9782 36 54 36C50.0218 36 46.2064 34.4196 43.3934 31.6066C40.5804 28.7936 39 24.9782 39 21C39 17.0218 40.5804 13.2064 43.3934 10.3934C46.2064 7.58035 50.0218 6 54 6C57.9782 6 61.7936 7.58035 64.6066 10.3934C67.4196 13.2064 69 17.0218 69 21Z" stroke="#222222" stroke-width="12" stroke-linecap="square"/>
</svg>
