<svg width="100" height="100" viewBox="0 0 100 100" fill="none" xmlns="http://www.w3.org/2000/svg">
<path d="M35.9377 35.4167H17.1877C16.0826 35.4167 15.0228 34.9777 14.2414 34.1963C13.46 33.4149 13.021 32.3551 13.021 31.25V12.5C13.021 11.395 13.46 10.3352 14.2414 9.55376C15.0228 8.77236 16.0826 8.33337 17.1877 8.33337C18.2927 8.33337 19.3525 8.77236 20.1339 9.55376C20.9153 10.3352 21.3543 11.395 21.3543 12.5V27.0834H35.9377C37.0427 27.0834 38.1025 27.5224 38.8839 28.3038C39.6653 29.0852 40.1043 30.145 40.1043 31.25C40.1043 32.3551 39.6653 33.4149 38.8839 34.1963C38.1025 34.9777 37.0427 35.4167 35.9377 35.4167Z" fill="#222222"/>
<path d="M87.5 54.1666C86.3949 54.1666 85.3351 53.7276 84.5537 52.9463C83.7723 52.1648 83.3334 51.105 83.3334 50C83.3365 42.6647 80.9185 35.5335 76.4546 29.7129C71.9906 23.8923 65.7303 19.7079 58.6452 17.8088C51.56 15.9098 44.0461 16.4024 37.2695 19.2102C30.4929 22.018 24.8325 26.9839 21.1667 33.3375C20.613 34.2939 19.7021 34.9912 18.6343 35.2761C17.5666 35.5609 16.4294 35.4099 15.4729 34.8562C14.5165 34.3026 13.8192 33.3917 13.5343 32.3239C13.2495 31.2561 13.4005 30.1189 13.9542 29.1625C18.5386 21.2218 25.6154 15.016 34.0867 11.5078C42.5581 7.99968 51.9504 7.38527 60.8066 9.75993C69.6628 12.1346 77.4877 17.3656 83.0675 24.6413C88.6473 31.9171 91.67 40.8309 91.6667 50C91.6667 51.105 91.2277 52.1648 90.4463 52.9463C89.6649 53.7276 88.6051 54.1666 87.5 54.1666ZM82.8125 91.6666C81.7074 91.6666 80.6476 91.2277 79.8662 90.4463C79.0848 89.6648 78.6458 88.605 78.6458 87.5V72.9166H64.0625C62.9574 72.9166 61.8976 72.4777 61.1162 71.6963C60.3348 70.9149 59.8958 69.855 59.8958 68.75C59.8958 67.6449 60.3348 66.5851 61.1162 65.8037C61.8976 65.0223 62.9574 64.5833 64.0625 64.5833H82.8125C83.9176 64.5833 84.9774 65.0223 85.7588 65.8037C86.5402 66.5851 86.9792 67.6449 86.9792 68.75V87.5C86.9792 88.605 86.5402 89.6648 85.7588 90.4463C84.9774 91.2277 83.9176 91.6666 82.8125 91.6666Z" fill="#222222"/>
<path d="M50.0002 91.6667C38.9529 91.6557 28.3612 87.2623 20.5496 79.4506C12.7379 71.639 8.34453 61.0473 8.3335 50C8.3335 48.895 8.77248 47.8352 9.55388 47.0538C10.3353 46.2724 11.3951 45.8334 12.5002 45.8334C13.6052 45.8334 14.665 46.2724 15.4464 47.0538C16.2278 47.8352 16.6668 48.895 16.6668 50C16.6637 57.3353 19.0817 64.4665 23.5456 70.2871C28.0096 76.1077 34.2698 80.2922 41.355 82.1912C48.4402 84.0902 55.9541 83.5976 62.7307 80.7898C69.5073 77.9821 75.1677 73.0161 78.8335 66.6625C79.1076 66.189 79.4724 65.774 79.9069 65.4414C80.3414 65.1088 80.8371 64.865 81.3658 64.7239C81.8945 64.5829 82.4459 64.5474 82.9883 64.6194C83.5307 64.6915 84.0537 64.8697 84.5273 65.1438C85.0008 65.4179 85.4158 65.7827 85.7484 66.2172C86.081 66.6517 86.3248 67.1474 86.4658 67.6761C86.6069 68.2048 86.6424 68.7561 86.5703 69.2986C86.4983 69.841 86.3201 70.364 86.046 70.8375C82.3821 77.1568 77.1259 82.4053 70.8013 86.06C64.4767 89.7146 57.3047 91.6478 50.0002 91.6667Z" fill="#222222"/>
</svg>
