<svg width="100" height="100" viewBox="0 0 100 100" fill="none" xmlns="http://www.w3.org/2000/svg">
<path d="M50.0002 8.33337C73.0127 8.33337 91.6668 26.9875 91.6668 50C91.6668 73.0125 73.0127 91.6667 50.0002 91.6667C26.9877 91.6667 8.3335 73.0125 8.3335 50C8.3335 26.9875 26.9877 8.33337 50.0002 8.33337ZM50.0002 66.6667C48.8951 66.6667 47.8353 67.1057 47.0539 67.8871C46.2725 68.6685 45.8335 69.7283 45.8335 70.8334C45.8335 71.9384 46.2725 72.9983 47.0539 73.7797C47.8353 74.5611 48.8951 75 50.0002 75C51.1052 75 52.165 74.5611 52.9464 73.7797C53.7278 72.9983 54.1668 71.9384 54.1668 70.8334C54.1668 69.7283 53.7278 68.6685 52.9464 67.8871C52.165 67.1057 51.1052 66.6667 50.0002 66.6667ZM50.0002 27.0834C45.9943 27.0834 42.1525 28.6747 39.3199 31.5073C36.4873 34.3399 34.896 38.1817 34.896 42.1875C34.896 43.2926 35.335 44.3524 36.1164 45.1338C36.8978 45.9152 37.9576 46.3542 39.0627 46.3542C40.1677 46.3542 41.2275 45.9152 42.0089 45.1338C42.7903 44.3524 43.2293 43.2926 43.2293 42.1875C43.2307 40.9585 43.5666 39.7531 44.2009 38.7004C44.8353 37.6478 45.7442 36.7876 46.8302 36.2122C47.9162 35.6368 49.1383 35.3678 50.3655 35.4342C51.5928 35.5005 52.7788 35.8996 53.7965 36.5887C54.8141 37.2778 55.625 38.2309 56.1422 39.3457C56.6595 40.4606 56.8635 41.6953 56.7324 42.9173C56.6013 44.1393 56.1401 45.3026 55.3982 46.2824C54.6563 47.2622 53.6617 48.0216 52.521 48.4792C49.7043 49.6042 45.8335 52.4875 45.8335 57.2917V58.3334C45.8335 59.4384 46.2725 60.4983 47.0539 61.2797C47.8353 62.0611 48.8951 62.5 50.0002 62.5C51.1052 62.5 52.165 62.0611 52.9464 61.2797C53.7278 60.4983 54.1668 59.4384 54.1668 58.3334C54.1668 57.3167 54.3752 56.8084 55.2543 56.375L55.6168 56.2084C58.8702 54.8996 61.567 52.4999 63.2449 49.4205C64.9228 46.3412 65.4772 42.7741 64.8132 39.3308C64.1491 35.8875 62.308 32.7824 59.6054 30.5478C56.9027 28.3133 53.5069 27.0885 50.0002 27.0834Z" fill="#222222"/>
</svg>
